<?xml version="1.0" encoding="UTF-8"?>
<svg id="Calque_2" xmlns="http://www.w3.org/2000/svg" viewBox="0 0 441.03 500">
  <defs>
    <style>
      .cls-1 {
        fill: #2ecc71;
      }
    </style>
  </defs>
  <g id="Calque_1-2" data-name="Calque_1">
    <g>
      <path class="cls-1" d="M439.83,206.77l-94.42,123.11v82.47c0,5.98,1.2,9.56-4.78,9.56-27.49,3.59-66.93,5.98-90.84,5.98-96.81,0-155.38-60.96-155.38-187.65s63.35-167.33,160.16-167.33c33.47,0,64.54,2.39,88.44,7.17,5.98,1.2,2.39,3.59,2.39,9.56v52.59h94.42V31.08c0-5.98-2.39-8.37-7.17-10.76C372.9,9.56,309.56,0,254.58,0,123.11,0,0,56.17,0,240.24s111.15,255.77,235.45,258.16c0,0,109.96,8.37,166.13-13.15,0,0,33.47-8.37,38.25-75.3,1.2-14.34,1.2-28.68,1.2-43.03h-1.2c0-1.2,0-160.16,0-160.16Z"/>
      <path class="cls-1" d="M234.26,204.38v94.42h70.52c22.71-11.95,133.86-93.23,133.86-93.23v-1.2h-204.38Z"/>
    </g>
  </g>
</svg>