<svg xmlns="http://www.w3.org/2000/svg" viewBox="0 0 72 18">
    <defs>
        <linearGradient id="d" x1="1.2" y1="5.1" x2="71.5" y2="17.5" gradientTransform="matrix(1, 0, 0, 1, 0, 0)" gradientUnits="userSpaceOnUse">
            <stop offset="0" stop-color="#2ecc71"/><stop offset="1" stop-color="#27a0ad"/>
        </linearGradient>
    </defs>
    <g>
        <path d="M24.05,9.27c0-3.54-2.35-4.64-5.89-4.64-1.03,0-2.68,.12-3.84,.28-.14,0-.23,.07-.23,.18v.02l.23,1.39c.02,.11,.09,.18,.23,.18h.07c.85-.07,1.97-.16,3.18-.16,2.28,0,3.81,.45,3.81,3.08-.68-.1-2.55-.28-3.49-.28-1.9,0-5.44,.14-5.44,4s3.01,4.68,5.57,4.68c1.26,0,3.79-.28,5.53-.46,.23-.04,.28-.14,.28-.32v-7.95Zm-2.4,6.37c0,.18-.04,.23-.25,.23h-3.2c-1.42,0-3.06-.3-3.06-2.56,0-1.91,1.6-2.12,3.18-2.12h3.08c.2,0,.25,.09,.25,.23v4.22ZM27.8,0l-1.97,.23c-.14,.02-.21,.07-.21,.23V17.54c0,.18,.07,.23,.21,.23h1.99c.16,0,.21-.07,.21-.23V.23c0-.16-.05-.23-.23-.23Zm4.39,.23h-1.99c-.14,0-.21,.07-.21,.23v1.87c0,.18,.1,.25,.21,.25h1.99c.16,0,.21-.07,.21-.23V.46c0-.16-.05-.23-.21-.23Zm-.03,4.5h-1.94c-.16,0-.23,.09-.23,.23v12.58c0,.16,.07,.23,.21,.23h1.98c.16,.01,.21-.06,.21-.22V4.94c0-.14-.05-.21-.23-.21Zm20.29-.07c-3.43,0-6.26,1.49-6.26,6.58s2.63,6.71,6.53,6.71c1.46,0,2.83-.14,3.95-.3,.17-.05,.23-.05,.28-.21l.21-1.39v-.05c0-.14-.12-.16-.21-.16-1.23,.09-2.4,.18-3.45,.18-2.81,0-4.75-.64-4.84-3.52,0-.21,.07-.23,.21-.23h9.55v.02c.13,0,.2-.07,.2-.23,0-5.07-1.99-7.4-6.17-7.4Zm3.48,5.81h-7.08c-.16,0-.21-.05-.21-.23,0-2.54,1.44-3.77,3.68-3.77s3.79,1.23,3.86,3.79c0,.19-.09,.21-.25,.21Zm9.59-5.9c-3.73,0-6.56,2.34-6.56,6.81s3.17,6.62,6.53,6.62h.01c3.54,0,6.6-2.19,6.6-6.62,0-4.71-2.85-6.81-6.58-6.81Zm.02,11.48c-2.47,0-4.16-1.39-4.16-4.68,0-3.77,1.85-5,4.11-5s4.23,1.21,4.23,5c0,3.24-1.71,4.68-4.18,4.68ZM11.65,10.14l-2.51,3.26v2.19c0,.16,.02,.25-.12,.25-.73,.09-1.78,.16-2.42,.16-2.56,0-4.13-1.6-4.13-4.98s1.68-4.43,4.26-4.43c.89,0,1.7,.07,2.34,.18,.14,.02,.08,.11,.08,.25v1.41h2.51v-2.94c0-.16-.05-.23-.18-.27-1.58-.28-3.27-.53-4.73-.53C3.26,4.69,0,6.17,0,11.06s2.93,6.77,6.23,6.83c0,0,2.92,.23,4.39-.36,0,0,.91-.22,1.02-1.99,.02-.37,.03-.76,.03-1.16h-.02v-4.24Zm-5.43-.04v2.51h1.88c.62-.3,3.55-2.47,3.55-2.47v-.04H6.22Zm33.44,0v2.51h1.88c.62-.3,3.55-2.47,3.55-2.47v-.04h-5.43Zm5.43,.04l-2.51,3.26v2.19c0,.16,.02,.25-.12,.25-.73,.09-1.78,.16-2.42,.16-2.56,0-4.13-1.6-4.13-4.98s1.68-4.43,4.26-4.43c.89,0,1.7,.07,2.34,.18,.14,.02,.08,.11,.08,.25v1.41h2.51v-2.94c0-.16-.05-.23-.18-.27-1.58-.28-3.27-.53-4.73-.53-3.49,0-6.75,1.49-6.75,6.37s2.93,6.77,6.23,6.83c0,0,2.92,.23,4.39-.36,0,0,.91-.22,1.02-1.99,.02-.37,.03-.76,.03-1.16h-.02v-4.24Z" fill="url(#d)"/>
    </g>
</svg>